<?xml version="1.0" encoding="utf-8" ?><svg xmlns="http://www.w3.org/2000/svg" xmlns:xlink="http://www.w3.org/1999/xlink" width="883" height="223" viewBox="0 0 883 223"><clipPath id="cl_3"><rect width="883" height="223"/></clipPath><g clip-path="url(#cl_3)"><defs><linearGradient id="gradient_0" gradientUnits="userSpaceOnUse" x1="211.40063" y1="574.84167" x2="196.97266" y2="401.66995"><stop offset="0" stop-color="#094765"/><stop offset="1" stop-color="#156C8B"/></linearGradient></defs><path fill="url(#gradient_0)" transform="translate(-68 -378)" d="M243.457 475.802C240.219 486.91 216.464 570.921 214.492 573.645C213.512 575 211.308 575.546 209.73 575.822C203.695 576.877 187.552 577.509 182.678 574.008C179.781 569.056 177.965 560.111 176.139 554.512C172.749 544.116 169.854 533.561 166.814 523.066C160.78 502.229 154.507 481.448 148.364 460.635L137.429 424.352C135.629 418.454 130.52 410.197 136.712 406.057C146.089 405.963 155.478 405.821 164.853 405.84C171.65 405.853 174.787 406.175 176.713 413.364C183.69 439.407 191.021 465.4 197.757 491.503C205.088 465 213.019 438.356 220.906 412.001C222.02 408.302 223.844 406.117 228.108 406.085C237.918 406.011 248.289 405.764 258.074 406.288C259.785 406.38 261.276 407.78 262.136 409.101C262.615 414.506 246.179 466.68 243.457 475.802Z"/><defs><linearGradient id="gradient_1" gradientUnits="userSpaceOnUse" x1="332.93094" y1="547.9823" x2="237.23714" y2="434.21747"><stop offset="0" stop-color="#094765"/><stop offset="1" stop-color="#156C8B"/></linearGradient></defs><path fill="url(#gradient_1)" transform="translate(-68 -378)" d="M300.553 575.994C294.272 576.042 271.085 577.265 267.064 574.255C265.544 568.695 266.057 549.787 266.051 542.806L265.971 490.417L265.597 430.128C265.605 425.196 265.293 420.226 265.427 415.314C265.564 410.253 265.938 407.766 270.937 406.135C278.688 405.777 294.494 405.538 301.597 406.925C306.028 407.791 304.594 444.35 304.641 450.428L304.658 537.253C304.58 548.483 304.615 559.715 304.483 570.943C304.443 574.308 303.625 575.052 300.553 575.994Z"/><defs><linearGradient id="gradient_2" gradientUnits="userSpaceOnUse" x1="418.98837" y1="572.67175" x2="316.82968" y2="407.60541"><stop offset="0" stop-color="#094765"/><stop offset="1" stop-color="#156C8B"/></linearGradient></defs><path fill="url(#gradient_2)" transform="translate(-68 -378)" d="M443.612 555.621C440.023 560.432 435.416 564.307 430.185 567.223C423.282 571.072 415.638 573.612 407.836 574.824C397.911 576.366 323.779 577.244 316.103 575.11C313.443 572.42 314.283 546.734 314.28 541.715L314.22 488.87L314.107 437.136C314.089 428.627 313.965 420.083 314.187 411.581C314.289 407.674 316.288 406.806 319.68 406.226C333.681 405.764 348.585 406.099 362.674 406.017C374.889 406.207 387.224 405.361 399.321 407.195C424.96 411.081 445.002 431.584 440.077 458.506C437.959 470.086 432.984 476.231 423.626 482.826C426.951 484.373 430.187 485.874 433.228 487.928C456.086 503.361 458.696 534.063 443.612 555.621ZM356.843 439.54C355.202 443.598 355.621 464.826 356.11 469.868C362.168 470.25 368.126 470.147 374.179 470.138C382.588 470.125 388.431 470.458 395.857 466.003C406.11 456.15 400.343 441.709 387.064 440.026C378.143 438.896 366.066 439.173 356.843 439.54ZM357.319 504.487C353.999 509.212 356.333 526.354 355.76 532.795C355.588 534.717 356.159 538.184 356.911 539.985C359.558 541.754 391.408 540.336 396.257 539.776C398.437 539.524 403.675 537.053 405.766 535.82C423.303 520.197 404.061 502.832 385.683 504.481C377.352 505.229 366.111 504.134 357.319 504.487Z"/><defs><linearGradient id="gradient_3" gradientUnits="userSpaceOnUse" x1="585.38055" y1="557.1311" x2="444.85291" y2="425.08832"><stop offset="0" stop-color="#002C45"/><stop offset="1" stop-color="#0A5878"/></linearGradient></defs><path fill="url(#gradient_3)" transform="translate(-68 -378)" d="M500.247 511.624C500.182 516.463 498.926 534.198 501.036 537.345C503.21 540.589 557.662 538.029 566.121 538.931C567.783 539.109 569.963 539.414 570.941 540.913C572.515 543.325 572.689 569.151 571.78 572.522C571.42 573.856 570.831 574.639 569.635 575.335C568.608 575.933 567.15 576.086 565.994 576.13C556.495 576.494 462.564 576.381 460.46 575.378C459.415 574.88 458.777 574.126 458.36 573.049C456.541 568.348 457.92 473.946 457.959 462.519C458.011 447.257 457.476 431.857 457.913 416.611C457.983 414.181 457.888 410.807 459.185 408.693C460.225 406.999 461.863 406.596 463.657 406.236C484.227 405.547 506.425 406.663 527.309 406.386C541.063 406.807 555.214 405.407 568.87 406.926C572.098 406.727 572.635 413.483 572.288 415.98C571.329 422.893 573.679 437.411 571.245 443.127C566.653 447.726 512.706 442.964 502.774 445.055C501.493 445.325 501.113 445.789 500.404 446.827C499.711 452.24 499.159 466.14 500.78 471.141C502.437 476.254 563.822 469.966 570.001 474.157C571.383 475.095 571.728 476.672 571.94 478.246C572.396 481.646 572.591 501.301 572.033 504.75C571.827 506.024 571.35 507.364 570.445 508.316C569.412 509.403 567.885 509.924 566.435 510.128C562.823 510.635 558.713 509.955 555.02 509.963L520.399 509.864C514.66 509.827 508.386 509.629 502.686 510.027C501.137 510.135 500.92 510.663 500.247 511.624Z"/><defs><linearGradient id="gradient_4" gradientUnits="userSpaceOnUse" x1="892.24176" y1="561.57831" x2="752.61407" y2="418.62073"><stop offset="0" stop-color="#3F90B3"/><stop offset="1" stop-color="#A3CDDD"/></linearGradient></defs><path fill="url(#gradient_4)" transform="translate(-68 -378)" d="M796.153 535.024C805.893 520.114 810.469 506.935 809.869 488.658C809.129 466.118 798.619 439.063 781.149 424.145C775.317 419.166 769.451 417.382 763.882 412.726C762.542 411.606 762.429 410.515 762.405 409.015C763.328 407.183 763.293 407.288 765.016 406.119C773.822 405.68 804.939 404.606 811.402 407.665C814.837 412.111 818.667 422.336 820.97 427.749L830.037 448.575L865.164 529.978C870.681 543.019 878.175 558.379 881.877 572.159C882.109 573.024 880.958 574.798 880.242 575.269C876.668 577.616 870.148 576.812 865.9 576.727C859.119 576.574 850.187 577.028 843.451 576.373C832.676 575.327 828.604 554.726 821.852 546.998C813.291 537.199 807.875 536.651 796.153 535.024Z"/><defs><linearGradient id="gradient_5" gradientUnits="userSpaceOnUse" x1="833.90515" y1="565.30487" x2="637.19885" y2="445.49442"><stop offset="0" stop-color="#002C45"/><stop offset="1" stop-color="#094765"/></linearGradient></defs><path fill="url(#gradient_5)" transform="translate(-68 -378)" d="M766.75 576.874L732.772 576.885C701.083 576.976 677.824 576.145 651.097 554.553C635.487 541.139 624.747 519.861 623.712 499.374C621.039 446.465 654.561 410.572 706.37 406.715C742.944 403.708 773.951 420.81 791.895 452.496C808.966 482.641 804.348 514.165 783.796 541.124C804.752 541.804 814.076 539.896 823.973 562.082C825.343 565.151 831.25 572.628 829.072 575.465C822.503 578.393 777.052 576.894 766.75 576.874ZM705.514 443.713C679.074 448.297 661.35 473.441 665.919 499.884C670.488 526.327 695.622 544.065 722.067 539.511C748.535 534.954 766.29 509.796 761.717 483.331C757.145 456.866 731.976 439.125 705.514 443.713Z"/></g></svg>